<?xml version="1.0" encoding="iso-8859-1"?>
<!-- Uploaded to: SVG Repo, www.svgrepo.com, Generator: SVG Repo Mixer Tools -->
<svg version="1.1" id="Layer_1" xmlns="http://www.w3.org/2000/svg" xmlns:xlink="http://www.w3.org/1999/xlink" 
	 viewBox="0 0 512.004 512.004" xml:space="preserve">
<g>
	<rect x="238.984" y="118.986" style="fill:#BCBCBC;" width="199.188" height="16"/>
	<rect x="238.984" y="177.217" style="fill:#BCBCBC;" width="273.02" height="16"/>
	<rect x="238.984" y="329.623" style="fill:#BCBCBC;" width="189.006" height="16"/>
	<rect x="238.984" y="389.702" style="fill:#BCBCBC;" width="273.02" height="16"/>
</g>
<rect x="8" y="90.753" style="fill:#FFFFFF;" width="143.438" height="143.438"/>
<path style="fill:#BCBCBC;" d="M143.44,98.755v127.44H16V98.755H143.44 M159.44,82.754H0v159.44h159.44V82.754z"/>
<rect x="8" y="303.217" style="fill:#FFFFFF;" width="143.438" height="143.449"/>
<path style="fill:#BCBCBC;" d="M143.44,311.211v127.44H16v-127.44H143.44 M159.44,295.21H0v159.44h159.44V295.21z"/>
<g>
	<polygon style="fill:#E21B1B;" points="96.016,416.707 35.36,362.835 56.504,339.026 91.792,370.37 170.296,269.826 195.4,289.427 
			"/>
	<polygon style="fill:#E21B1B;" points="96.016,204.234 35.36,150.362 56.504,126.554 91.792,157.899 170.296,57.354 195.4,76.954 	
		"/>
</g>
</svg>