<svg width="512" height="512" viewBox="0 0 512 512" fill="none" xmlns="http://www.w3.org/2000/svg">
<path d="M473.185 420.069V277.324C473.185 261.764 460.571 249.151 445.012 249.151H159.051C143.491 249.151 130.878 261.765 130.878 277.324V420.069C130.878 435.629 143.492 448.242 159.051 448.242H386.778C409.887 489.416 445.614 489.67 465.638 485.825C470.022 484.983 470.641 478.985 466.541 477.218C450.855 470.461 443.318 459.218 439.9 448.241H445.013C460.572 448.242 473.185 435.628 473.185 420.069Z" fill="#221E1F"/>
<path d="M431.724 319.291H194.773C189.851 319.291 185.862 315.301 185.862 310.38C185.862 305.458 189.852 301.469 194.773 301.469H431.724C436.646 301.469 440.635 305.459 440.635 310.38C440.635 315.301 436.645 319.291 431.724 319.291Z" fill="#5E4F53"/>
<path d="M431.724 368.246H194.773C189.851 368.246 185.862 364.256 185.862 359.335C185.862 354.413 189.852 350.424 194.773 350.424H431.724C436.646 350.424 440.635 354.414 440.635 359.335C440.635 364.257 436.645 368.246 431.724 368.246Z" fill="#5E4F53"/>
<path d="M353.048 24.786L67.087 24.621C51.527 24.612 38.906 37.218 38.897 52.778L38.814 195.523C38.805 211.083 51.411 223.704 66.971 223.713L72.084 223.716C68.659 234.69 61.116 245.93 45.426 252.677C41.325 254.441 41.94 260.44 46.324 261.284C66.346 265.141 102.073 264.907 125.206 223.746L352.933 223.878C368.493 223.887 381.114 211.28 381.123 195.721L381.206 52.976C381.214 37.416 368.608 24.795 353.048 24.786Z" fill="#EF3C3F"/>
<path d="M102.098 94.844H340.257C345.179 94.844 349.168 90.854 349.168 85.933C349.168 81.011 345.178 77.022 340.257 77.022H102.098C97.176 77.022 93.187 81.012 93.187 85.933C93.187 90.854 97.176 94.844 102.098 94.844Z" fill="#FF7779"/>
<path d="M102.098 143.799H340.257C345.179 143.799 349.168 139.809 349.168 134.888C349.168 129.966 345.178 125.977 340.257 125.977H102.098C97.176 125.977 93.187 129.967 93.187 134.888C93.187 139.809 97.176 143.799 102.098 143.799Z" fill="#FF7779"/>
<path d="M346.702 222.988C385.877 222.988 417.635 191.23 417.635 152.055C417.635 112.88 385.877 81.122 346.702 81.122C307.527 81.122 275.769 112.88 275.769 152.055C275.769 191.23 307.527 222.988 346.702 222.988Z" fill="#EF3C3F"/>
<path d="M346.702 210.011C378.711 210.011 404.659 184.063 404.659 152.054C404.659 120.045 378.711 94.097 346.702 94.097C314.693 94.097 288.745 120.045 288.745 152.054C288.745 184.063 314.693 210.011 346.702 210.011Z" fill="#221E1F"/>
<path d="M76.324 261.283C71.94 260.439 71.325 254.44 75.426 252.676C91.116 245.928 98.659 234.689 102.084 223.715L96.971 223.712C81.411 223.703 68.805 211.082 68.814 195.523L68.897 52.778C68.906 37.448 81.159 24.994 96.401 24.638L67.087 24.62C51.527 24.611 38.906 37.218 38.897 52.777L38.814 195.522C38.805 211.082 51.411 223.703 66.971 223.711L72.084 223.714C68.659 234.689 61.116 245.928 45.426 252.675C41.325 254.439 41.94 260.438 46.324 261.282C54.55 262.866 65.427 263.758 76.992 261.407C76.768 261.367 76.544 261.326 76.324 261.283Z" fill="#EF3C3F"/>
<path d="M161.877 420.069V277.324C161.877 261.764 174.491 249.151 190.05 249.151H159.05C143.49 249.151 130.877 261.764 130.877 277.324V420.069C130.877 435.629 143.491 448.242 159.05 448.242H190.05C174.491 448.242 161.877 435.628 161.877 420.069Z" fill="#221E1F"/>
<path d="M163.829 448.008C203.004 448.008 234.762 416.25 234.762 377.075C234.762 337.9 203.004 306.142 163.829 306.142C124.654 306.142 92.896 337.9 92.896 377.075C92.896 416.25 124.654 448.008 163.829 448.008Z" fill="#221E1F"/>
<path d="M163.829 435.031C195.838 435.031 221.786 409.083 221.786 377.074C221.786 345.065 195.838 319.117 163.829 319.117C131.82 319.117 105.872 345.065 105.872 377.074C105.872 409.083 131.82 435.031 163.829 435.031Z" fill="#EF3C3F"/>
<path d="M206.054 386.075H120.199C115.228 386.075 111.199 382.046 111.199 377.075C111.199 372.104 115.228 368.075 120.199 368.075H206.054C211.025 368.075 215.054 372.104 215.054 377.075C215.054 382.046 211.025 386.075 206.054 386.075Z" fill="white"/>
<path d="M135.872 377.075C135.872 374.013 136.122 371.01 136.582 368.075H120.2C115.229 368.075 111.2 372.104 111.2 377.075C111.2 382.046 115.229 386.075 120.2 386.075H136.582C136.121 383.14 135.872 380.137 135.872 377.075Z" fill="white"/>
<path d="M93.1869 210.896C101.921 210.896 109.002 203.815 109.002 195.081C109.002 186.347 101.921 179.266 93.1869 179.266C84.4526 179.266 77.3719 186.347 77.3719 195.081C77.3719 203.815 84.4526 210.896 93.1869 210.896Z" fill="#FF7779"/>
<path d="M253.015 438.097C261.749 438.097 268.83 431.016 268.83 422.282C268.83 413.548 261.749 406.467 253.015 406.467C244.281 406.467 237.2 413.548 237.2 422.282C237.2 431.016 244.281 438.097 253.015 438.097Z" fill="#5E4F53"/>
<path d="M355.797 114.664V140.383C355.797 141.488 356.692 142.383 357.797 142.383H383.516C388.288 142.383 392.156 146.251 392.156 151.023C392.156 155.795 388.288 159.663 383.516 159.663H357.797C356.692 159.663 355.797 160.558 355.797 161.663V187.382C355.797 192.651 351.526 196.922 346.257 196.922C340.988 196.922 336.717 192.651 336.717 187.382V161.663C336.717 160.558 335.822 159.663 334.717 159.663H308.998C304.226 159.663 300.358 155.795 300.358 151.023C300.358 146.251 304.226 142.383 308.998 142.383H334.717C335.822 142.383 336.717 141.488 336.717 140.383V114.664C336.717 109.395 340.988 105.124 346.257 105.124C351.526 105.124 355.797 109.395 355.797 114.664Z" fill="white"/>
</svg>
